<mxfile host="app.diagrams.net" modified="2021-02-15T13:42:42.765Z" agent="5.0 (Windows)" etag="Xla8FwEx5sQhdcGbWfr_" version="14.3.2" type="github">
  <diagram id="MDXJFjJfNh9OXjP4r4t9" name="Page-1">
    <mxGraphModel dx="2844" dy="2782" grid="0" gridSize="10" guides="1" tooltips="1" connect="1" arrows="1" fold="1" page="0" pageScale="1" pageWidth="827" pageHeight="1169" background="#FFFFFF" math="0" shadow="1">
      <root>
        <mxCell id="0" />
        <mxCell id="1" parent="0" />
        <mxCell id="HdkyvseI2gNJO4S1q-cR-1" value="" style="shadow=0;dashed=0;html=1;strokeColor=none;fillColor=#4495D1;labelPosition=center;verticalLabelPosition=bottom;verticalAlign=top;align=center;outlineConnect=0;shape=mxgraph.veeam.2d.cloud;" parent="1" vertex="1">
          <mxGeometry x="40" y="30" width="380" height="200" as="geometry" />
        </mxCell>
        <mxCell id="HdkyvseI2gNJO4S1q-cR-3" value="USER Net" style="text;html=1;align=center;verticalAlign=middle;resizable=0;points=[];autosize=1;strokeWidth=1;fontStyle=1;fontSize=14;" parent="1" vertex="1">
          <mxGeometry x="214.57" y="50" width="80" height="20" as="geometry" />
        </mxCell>
        <mxCell id="HdkyvseI2gNJO4S1q-cR-4" value="" style="shadow=0;dashed=0;html=1;strokeColor=none;fillColor=#4495D1;labelPosition=center;verticalLabelPosition=bottom;verticalAlign=top;align=center;outlineConnect=0;shape=mxgraph.veeam.2d.cloud;" parent="1" vertex="1">
          <mxGeometry x="600" y="30" width="380" height="200" as="geometry" />
        </mxCell>
        <mxCell id="HdkyvseI2gNJO4S1q-cR-5" value="" style="shadow=0;dashed=0;html=1;strokeColor=none;fillColor=#4495D1;labelPosition=center;verticalLabelPosition=bottom;verticalAlign=top;align=center;outlineConnect=0;shape=mxgraph.veeam.2d.cloud;" parent="1" vertex="1">
          <mxGeometry x="600" y="340" width="380" height="200" as="geometry" />
        </mxCell>
        <mxCell id="HdkyvseI2gNJO4S1q-cR-37" style="edgeStyle=orthogonalEdgeStyle;rounded=0;orthogonalLoop=1;jettySize=auto;html=1;strokeColor=#000000;startArrow=classic;startFill=1;" parent="1" source="HdkyvseI2gNJO4S1q-cR-6" target="HdkyvseI2gNJO4S1q-cR-4" edge="1">
          <mxGeometry relative="1" as="geometry">
            <Array as="points">
              <mxPoint x="224" y="270" />
              <mxPoint x="790" y="270" />
            </Array>
          </mxGeometry>
        </mxCell>
        <mxCell id="HdkyvseI2gNJO4S1q-cR-47" style="edgeStyle=orthogonalEdgeStyle;rounded=0;orthogonalLoop=1;jettySize=auto;html=1;startArrow=classic;startFill=1;strokeColor=#000000;fontSize=22;" parent="1" source="HdkyvseI2gNJO4S1q-cR-6" target="HdkyvseI2gNJO4S1q-cR-5" edge="1">
          <mxGeometry relative="1" as="geometry" />
        </mxCell>
        <mxCell id="HdkyvseI2gNJO4S1q-cR-6" value="" style="shadow=0;dashed=0;html=1;strokeColor=none;fillColor=#4495D1;labelPosition=center;verticalLabelPosition=bottom;verticalAlign=top;align=center;outlineConnect=0;shape=mxgraph.veeam.2d.cloud;" parent="1" vertex="1">
          <mxGeometry x="34" y="340" width="380" height="200" as="geometry" />
        </mxCell>
        <mxCell id="HdkyvseI2gNJO4S1q-cR-9" value="" style="html=1;strokeWidth=1;shadow=0;dashed=0;shape=mxgraph.ios7.misc.vpn;fillColor=#007AFF;strokeColor=none;buttonText=;strokeColor2=#222222;fontColor=#222222;fontSize=8;verticalLabelPosition=bottom;verticalAlign=top;align=center;" parent="1" vertex="1">
          <mxGeometry x="110" y="80" width="60" height="60" as="geometry" />
        </mxCell>
        <mxCell id="HdkyvseI2gNJO4S1q-cR-10" value="" style="html=1;strokeWidth=1;shadow=0;dashed=0;shape=mxgraph.ios7.misc.vpn;fillColor=#007AFF;strokeColor=none;buttonText=;strokeColor2=#222222;fontColor=#222222;fontSize=8;verticalLabelPosition=bottom;verticalAlign=top;align=center;" parent="1" vertex="1">
          <mxGeometry x="670" y="80" width="60" height="60" as="geometry" />
        </mxCell>
        <mxCell id="HdkyvseI2gNJO4S1q-cR-11" value="" style="html=1;strokeWidth=1;shadow=0;dashed=0;shape=mxgraph.ios7.misc.vpn;fillColor=#007AFF;strokeColor=none;buttonText=;strokeColor2=#222222;fontColor=#222222;fontSize=8;verticalLabelPosition=bottom;verticalAlign=top;align=center;" parent="1" vertex="1">
          <mxGeometry x="670" y="390" width="60" height="60" as="geometry" />
        </mxCell>
        <mxCell id="HdkyvseI2gNJO4S1q-cR-12" value="" style="html=1;strokeWidth=1;shadow=0;dashed=0;shape=mxgraph.ios7.misc.vpn;fillColor=#007AFF;strokeColor=none;buttonText=;strokeColor2=#222222;fontColor=#222222;fontSize=8;verticalLabelPosition=bottom;verticalAlign=top;align=center;" parent="1" vertex="1">
          <mxGeometry x="110" y="390" width="60" height="60" as="geometry" />
        </mxCell>
        <mxCell id="HdkyvseI2gNJO4S1q-cR-14" value="" style="shadow=0;dashed=0;html=1;strokeColor=none;fillColor=#4495D1;labelPosition=center;verticalLabelPosition=bottom;verticalAlign=top;align=center;outlineConnect=0;shape=mxgraph.veeam.2d.group;" parent="1" vertex="1">
          <mxGeometry x="227.10000000000002" y="110" width="62.47" height="70.4" as="geometry" />
        </mxCell>
        <mxCell id="HdkyvseI2gNJO4S1q-cR-15" value="" style="shadow=0;dashed=0;html=1;strokeColor=none;fillColor=#4495D1;labelPosition=center;verticalLabelPosition=bottom;verticalAlign=top;align=center;outlineConnect=0;shape=mxgraph.veeam.2d.virtual_machine;" parent="1" vertex="1">
          <mxGeometry x="205" y="430" width="71.27" height="70" as="geometry" />
        </mxCell>
        <mxCell id="HdkyvseI2gNJO4S1q-cR-16" value="10.10.0.0/24" style="text;html=1;align=center;verticalAlign=middle;resizable=0;points=[];autosize=1;fontSize=15;" parent="1" vertex="1">
          <mxGeometry x="204.57" y="70" width="100" height="20" as="geometry" />
        </mxCell>
        <mxCell id="HdkyvseI2gNJO4S1q-cR-17" value="Sensors Net" style="text;html=1;align=center;verticalAlign=middle;resizable=0;points=[];autosize=1;fontStyle=1;fontSize=14;" parent="1" vertex="1">
          <mxGeometry x="759.9999999999999" y="50" width="100" height="20" as="geometry" />
        </mxCell>
        <mxCell id="HdkyvseI2gNJO4S1q-cR-18" value="10.20.0.0/24" style="text;html=1;align=center;verticalAlign=middle;resizable=0;points=[];autosize=1;fontSize=15;" parent="1" vertex="1">
          <mxGeometry x="760" y="70" width="100" height="20" as="geometry" />
        </mxCell>
        <mxCell id="HdkyvseI2gNJO4S1q-cR-19" value="External services Net" style="text;html=1;align=center;verticalAlign=middle;resizable=0;points=[];autosize=1;fontStyle=1;fontSize=12;" parent="1" vertex="1">
          <mxGeometry x="739.9999999999999" y="370" width="140" height="20" as="geometry" />
        </mxCell>
        <mxCell id="HdkyvseI2gNJO4S1q-cR-20" value="10.40.0.0/24" style="text;html=1;align=center;verticalAlign=middle;resizable=0;points=[];autosize=1;fontSize=15;" parent="1" vertex="1">
          <mxGeometry x="760" y="390" width="100" height="20" as="geometry" />
        </mxCell>
        <mxCell id="HdkyvseI2gNJO4S1q-cR-21" value="Internal services Net" style="text;html=1;align=center;verticalAlign=middle;resizable=0;points=[];autosize=1;fontStyle=1" parent="1" vertex="1">
          <mxGeometry x="179.99999999999994" y="370" width="130" height="20" as="geometry" />
        </mxCell>
        <mxCell id="HdkyvseI2gNJO4S1q-cR-22" value="10.30.0.0/24" style="text;html=1;align=center;verticalAlign=middle;resizable=0;points=[];autosize=1;fontSize=15;" parent="1" vertex="1">
          <mxGeometry x="195" y="390" width="100" height="20" as="geometry" />
        </mxCell>
        <mxCell id="HdkyvseI2gNJO4S1q-cR-23" value="" style="endArrow=none;dashed=1;html=1;" parent="1" edge="1">
          <mxGeometry width="50" height="50" relative="1" as="geometry">
            <mxPoint as="sourcePoint" />
            <mxPoint x="1040" as="targetPoint" />
          </mxGeometry>
        </mxCell>
        <mxCell id="HdkyvseI2gNJO4S1q-cR-24" value="" style="endArrow=none;dashed=1;html=1;" parent="1" edge="1">
          <mxGeometry width="50" height="50" relative="1" as="geometry">
            <mxPoint x="1040" as="sourcePoint" />
            <mxPoint x="1040" y="300" as="targetPoint" />
          </mxGeometry>
        </mxCell>
        <mxCell id="HdkyvseI2gNJO4S1q-cR-25" value="" style="endArrow=none;dashed=1;html=1;exitX=1.023;exitY=0.46;exitDx=0;exitDy=0;exitPerimeter=0;" parent="1" source="HdkyvseI2gNJO4S1q-cR-30" edge="1">
          <mxGeometry width="50" height="50" relative="1" as="geometry">
            <mxPoint x="520" y="300" as="sourcePoint" />
            <mxPoint x="1040" y="300" as="targetPoint" />
          </mxGeometry>
        </mxCell>
        <mxCell id="HdkyvseI2gNJO4S1q-cR-28" value="" style="endArrow=none;dashed=1;html=1;" parent="1" edge="1">
          <mxGeometry width="50" height="50" relative="1" as="geometry">
            <mxPoint y="300" as="sourcePoint" />
            <mxPoint as="targetPoint" />
          </mxGeometry>
        </mxCell>
        <mxCell id="HdkyvseI2gNJO4S1q-cR-30" value="192.168.9.0/24" style="text;html=1;align=center;verticalAlign=middle;resizable=0;points=[];autosize=1;fontSize=15;" parent="1" vertex="1">
          <mxGeometry x="25" y="290" width="110" height="20" as="geometry" />
        </mxCell>
        <mxCell id="HdkyvseI2gNJO4S1q-cR-32" value="" style="endArrow=none;dashed=1;html=1;entryX=-0.025;entryY=0.483;entryDx=0;entryDy=0;entryPerimeter=0;" parent="1" target="HdkyvseI2gNJO4S1q-cR-30" edge="1">
          <mxGeometry width="50" height="50" relative="1" as="geometry">
            <mxPoint y="300" as="sourcePoint" />
            <mxPoint x="430" y="300" as="targetPoint" />
          </mxGeometry>
        </mxCell>
        <mxCell id="HdkyvseI2gNJO4S1q-cR-35" value="" style="shadow=0;dashed=0;html=1;strokeColor=none;fillColor=#4495D1;labelPosition=center;verticalLabelPosition=bottom;verticalAlign=top;align=center;outlineConnect=0;shape=mxgraph.veeam.2d.service;" parent="1" vertex="1">
          <mxGeometry x="784" y="429" width="71" height="71" as="geometry" />
        </mxCell>
        <mxCell id="HdkyvseI2gNJO4S1q-cR-38" value="" style="shadow=0;dashed=0;html=1;strokeColor=none;fillColor=#4495D1;labelPosition=center;verticalLabelPosition=bottom;verticalAlign=top;align=center;outlineConnect=0;shape=mxgraph.veeam.2d.cloud;" parent="1" vertex="1">
          <mxGeometry x="341.45" y="-570" width="380" height="200" as="geometry" />
        </mxCell>
        <mxCell id="HdkyvseI2gNJO4S1q-cR-39" value="&lt;div style=&quot;font-size: 22px;&quot;&gt;Internet&lt;/div&gt;&lt;div style=&quot;font-size: 22px;&quot;&gt;&lt;br style=&quot;font-size: 22px;&quot;&gt;&lt;/div&gt;" style="text;html=1;align=center;verticalAlign=middle;resizable=0;points=[];autosize=1;fontSize=22;" parent="1" vertex="1">
          <mxGeometry x="486.45" y="-480" width="90" height="60" as="geometry" />
        </mxCell>
        <mxCell id="HdkyvseI2gNJO4S1q-cR-42" style="edgeStyle=orthogonalEdgeStyle;rounded=0;orthogonalLoop=1;jettySize=auto;html=1;strokeColor=#6F0000;fontSize=22;fillColor=#a20025;" parent="1" source="HdkyvseI2gNJO4S1q-cR-40" target="HdkyvseI2gNJO4S1q-cR-38" edge="1">
          <mxGeometry relative="1" as="geometry">
            <Array as="points">
              <mxPoint x="511.45" y="-700" />
            </Array>
          </mxGeometry>
        </mxCell>
        <mxCell id="HdkyvseI2gNJO4S1q-cR-40" value="" style="shadow=0;dashed=0;html=1;strokeColor=none;fillColor=#4495D1;labelPosition=center;verticalLabelPosition=bottom;verticalAlign=top;align=center;outlineConnect=0;shape=mxgraph.veeam.2d.group;" parent="1" vertex="1">
          <mxGeometry x="203.2" y="-760" width="106.49" height="120" as="geometry" />
        </mxCell>
        <mxCell id="HdkyvseI2gNJO4S1q-cR-43" style="edgeStyle=orthogonalEdgeStyle;rounded=0;orthogonalLoop=1;jettySize=auto;html=1;strokeColor=#006EAF;fontSize=22;fillColor=#1ba1e2;" parent="1" source="HdkyvseI2gNJO4S1q-cR-41" target="HdkyvseI2gNJO4S1q-cR-38" edge="1">
          <mxGeometry relative="1" as="geometry">
            <Array as="points">
              <mxPoint x="532" y="-780" />
              <mxPoint x="532" y="-780" />
            </Array>
          </mxGeometry>
        </mxCell>
        <mxCell id="HdkyvseI2gNJO4S1q-cR-41" value="" style="pointerEvents=1;shadow=0;dashed=0;html=1;strokeColor=none;fillColor=#4495D1;labelPosition=center;verticalLabelPosition=bottom;verticalAlign=top;align=center;outlineConnect=0;shape=mxgraph.veeam.server;fontSize=22;" parent="1" vertex="1">
          <mxGeometry x="419.1" y="-920" width="224.7" height="59.5" as="geometry" />
        </mxCell>
        <mxCell id="HdkyvseI2gNJO4S1q-cR-45" style="edgeStyle=orthogonalEdgeStyle;rounded=0;orthogonalLoop=1;jettySize=auto;html=1;strokeColor=#000000;fontSize=22;startArrow=classic;startFill=1;" parent="1" source="HdkyvseI2gNJO4S1q-cR-44" target="HdkyvseI2gNJO4S1q-cR-38" edge="1">
          <mxGeometry relative="1" as="geometry" />
        </mxCell>
        <mxCell id="HdkyvseI2gNJO4S1q-cR-48" style="edgeStyle=orthogonalEdgeStyle;rounded=0;orthogonalLoop=1;jettySize=auto;html=1;startArrow=classic;startFill=1;strokeColor=#6F0000;fontSize=22;fillColor=#a20025;" parent="1" source="HdkyvseI2gNJO4S1q-cR-44" target="HdkyvseI2gNJO4S1q-cR-1" edge="1">
          <mxGeometry relative="1" as="geometry">
            <Array as="points">
              <mxPoint x="510" y="-20" />
              <mxPoint x="230" y="-20" />
            </Array>
          </mxGeometry>
        </mxCell>
        <mxCell id="HdkyvseI2gNJO4S1q-cR-49" style="edgeStyle=orthogonalEdgeStyle;rounded=0;orthogonalLoop=1;jettySize=auto;html=1;startArrow=classic;startFill=1;strokeColor=#006EAF;fontSize=22;fillColor=#1ba1e2;" parent="1" source="HdkyvseI2gNJO4S1q-cR-44" target="HdkyvseI2gNJO4S1q-cR-4" edge="1">
          <mxGeometry relative="1" as="geometry">
            <Array as="points">
              <mxPoint x="570" y="-20" />
              <mxPoint x="790" y="-20" />
            </Array>
          </mxGeometry>
        </mxCell>
        <mxCell id="HdkyvseI2gNJO4S1q-cR-55" style="edgeStyle=orthogonalEdgeStyle;rounded=0;orthogonalLoop=1;jettySize=auto;html=1;startArrow=classic;startFill=1;strokeColor=#005700;fontSize=22;fillColor=#008a00;" parent="1" source="HdkyvseI2gNJO4S1q-cR-44" target="HdkyvseI2gNJO4S1q-cR-5" edge="1">
          <mxGeometry relative="1" as="geometry">
            <Array as="points">
              <mxPoint x="1120" y="-170" />
              <mxPoint x="1120" y="440" />
            </Array>
          </mxGeometry>
        </mxCell>
        <mxCell id="HdkyvseI2gNJO4S1q-cR-44" value="" style="shadow=0;dashed=0;html=1;strokeColor=none;fillColor=#4495D1;labelPosition=center;verticalLabelPosition=bottom;verticalAlign=top;align=center;outlineConnect=0;shape=mxgraph.veeam.2d.cloud;" parent="1" vertex="1">
          <mxGeometry x="341.45" y="-270" width="380" height="200" as="geometry" />
        </mxCell>
        <mxCell id="HdkyvseI2gNJO4S1q-cR-46" value="VPN Gateways" style="text;html=1;align=center;verticalAlign=middle;resizable=0;points=[];autosize=1;fontSize=22;" parent="1" vertex="1">
          <mxGeometry x="451.45" y="-185" width="160" height="30" as="geometry" />
        </mxCell>
        <mxCell id="HdkyvseI2gNJO4S1q-cR-50" value="Users" style="text;html=1;align=center;verticalAlign=middle;resizable=0;points=[];autosize=1;fontSize=22;" parent="1" vertex="1">
          <mxGeometry x="214.57" y="-630" width="70" height="30" as="geometry" />
        </mxCell>
        <mxCell id="HdkyvseI2gNJO4S1q-cR-51" value="Sensors" style="text;html=1;align=center;verticalAlign=middle;resizable=0;points=[];autosize=1;fontSize=22;" parent="1" vertex="1">
          <mxGeometry x="481.45" y="-950" width="100" height="30" as="geometry" />
        </mxCell>
        <mxCell id="HdkyvseI2gNJO4S1q-cR-52" value="" style="pointerEvents=1;shadow=0;dashed=0;html=1;strokeColor=none;fillColor=#4495D1;labelPosition=center;verticalLabelPosition=bottom;verticalAlign=top;align=center;outlineConnect=0;shape=mxgraph.veeam.server;fontSize=22;" parent="1" vertex="1">
          <mxGeometry x="762.85" y="120" width="113.29" height="30" as="geometry" />
        </mxCell>
        <mxCell id="HdkyvseI2gNJO4S1q-cR-54" style="edgeStyle=orthogonalEdgeStyle;rounded=0;orthogonalLoop=1;jettySize=auto;html=1;startArrow=classic;startFill=1;strokeColor=#005700;fontSize=22;fillColor=#008a00;" parent="1" source="HdkyvseI2gNJO4S1q-cR-53" target="HdkyvseI2gNJO4S1q-cR-38" edge="1">
          <mxGeometry relative="1" as="geometry">
            <Array as="points">
              <mxPoint x="550" y="-700" />
            </Array>
          </mxGeometry>
        </mxCell>
        <mxCell id="HdkyvseI2gNJO4S1q-cR-53" value="" style="shadow=0;dashed=0;html=1;strokeColor=none;fillColor=#4495D1;labelPosition=center;verticalLabelPosition=bottom;verticalAlign=top;align=center;outlineConnect=0;shape=mxgraph.veeam.2d.service;" parent="1" vertex="1">
          <mxGeometry x="710" y="-770" width="140" height="140" as="geometry" />
        </mxCell>
        <mxCell id="HdkyvseI2gNJO4S1q-cR-56" value="External services" style="text;html=1;align=center;verticalAlign=middle;resizable=0;points=[];autosize=1;fontSize=22;" parent="1" vertex="1">
          <mxGeometry x="690" y="-614.5" width="180" height="30" as="geometry" />
        </mxCell>
        <mxCell id="aBs4PDxY5lOeT9mWl6iJ-1" value="Маршрут только до нужных сервисов,&lt;br&gt;а не ко всей 30 подсети" style="text;html=1;align=center;verticalAlign=middle;resizable=0;points=[];autosize=1;fontColor=#FF3333;" vertex="1" parent="1">
          <mxGeometry x="399" y="406" width="221" height="32" as="geometry" />
        </mxCell>
      </root>
    </mxGraphModel>
  </diagram>
</mxfile>
